0
SECTION
2
HEADER
9
$INSUNITS
70
4
0
ENDSEC
0
SECTION
2
TABLES
0
TABLE
2
LTYPE
0
LTYPE
72
65
70
64
2
CONTINUOUS
3
______
73
0
40
0
0
ENDTAB
0
TABLE
2
LAYER
0
ENDTAB
0
ENDSEC
0
SECTION
2
ENTITIES
0
LINE
8
front_outsideCutPath
10
0
20
119
11
0
21
103
0
LINE
8
front_outsideCutPath
10
0
20
103
11
3
21
103
0
LINE
8
front_outsideCutPath
10
3
20
103
11
3
21
91
0
LINE
8
front_outsideCutPath
10
3
20
91
11
0
21
91
0
LINE
8
front_outsideCutPath
10
0
20
91
11
0
21
79
0
LINE
8
front_outsideCutPath
10
0
20
79
11
3
21
79
0
LINE
8
front_outsideCutPath
10
3
20
79
11
3
21
67
0
LINE
8
front_outsideCutPath
10
3
20
67
11
0
21
67
0
LINE
8
front_outsideCutPath
10
0
20
67
11
0
21
55
0
LINE
8
front_outsideCutPath
10
0
20
55
11
3
21
55
0
LINE
8
front_outsideCutPath
10
3
20
55
11
3
21
43
0
LINE
8
front_outsideCutPath
10
3
20
43
11
0
21
43
0
LINE
8
front_outsideCutPath
10
0
20
43
11
0
21
31
0
LINE
8
front_outsideCutPath
10
0
20
31
11
3
21
31
0
LINE
8
front_outsideCutPath
10
3
20
31
11
3
21
19
0
LINE
8
front_outsideCutPath
10
3
20
19
11
0
21
19
0
LINE
8
front_outsideCutPath
10
0
20
19
11
0
21
7
0
LINE
8
front_outsideCutPath
10
0
20
7
11
0
21
3
0
LINE
8
front_outsideCutPath
10
0
20
3
11
10
21
3
0
LINE
8
front_outsideCutPath
10
10
20
3
11
10
21
6
0
LINE
8
front_outsideCutPath
10
10
20
6
11
22
21
6
0
LINE
8
front_outsideCutPath
10
22
20
6
11
22
21
3
0
LINE
8
front_outsideCutPath
10
22
20
3
11
34
21
3
0
LINE
8
front_outsideCutPath
10
34
20
3
11
34
21
6
0
LINE
8
front_outsideCutPath
10
34
20
6
11
46
21
6
0
LINE
8
front_outsideCutPath
10
46
20
6
11
46
21
3
0
LINE
8
front_outsideCutPath
10
46
20
3
11
58
21
3
0
LINE
8
front_outsideCutPath
10
58
20
3
11
58
21
6
0
LINE
8
front_outsideCutPath
10
58
20
6
11
70
21
6
0
LINE
8
front_outsideCutPath
10
70
20
6
11
70
21
3
0
LINE
8
front_outsideCutPath
10
70
20
3
11
80
21
3
0
LINE
8
front_outsideCutPath
10
80
20
3
11
80
21
19
0
LINE
8
front_outsideCutPath
10
80
20
19
11
77
21
19
0
LINE
8
front_outsideCutPath
10
77
20
19
11
77
21
31
0
LINE
8
front_outsideCutPath
10
77
20
31
11
80
21
31
0
LINE
8
front_outsideCutPath
10
80
20
31
11
80
21
43
0
LINE
8
front_outsideCutPath
10
80
20
43
11
77
21
43
0
LINE
8
front_outsideCutPath
10
77
20
43
11
77
21
55
0
LINE
8
front_outsideCutPath
10
77
20
55
11
80
21
55
0
LINE
8
front_outsideCutPath
10
80
20
55
11
80
21
67
0
LINE
8
front_outsideCutPath
10
80
20
67
11
77
21
67
0
LINE
8
front_outsideCutPath
10
77
20
67
11
77
21
79
0
LINE
8
front_outsideCutPath
10
77
20
79
11
80
21
79
0
LINE
8
front_outsideCutPath
10
80
20
79
11
80
21
91
0
LINE
8
front_outsideCutPath
10
80
20
91
11
77
21
91
0
LINE
8
front_outsideCutPath
10
77
20
91
11
77
21
103
0
LINE
8
front_outsideCutPath
10
77
20
103
11
80
21
103
0
LINE
8
front_outsideCutPath
10
80
20
103
11
80
21
115
0
LINE
8
front_outsideCutPath
10
80
20
115
11
80
21
119
0
LINE
8
front_outsideCutPath
10
80
20
119
11
70
21
119
0
LINE
8
front_outsideCutPath
10
70
20
119
11
70
21
116
0
LINE
8
front_outsideCutPath
10
70
20
116
11
58
21
116
0
LINE
8
front_outsideCutPath
10
58
20
116
11
58
21
119
0
LINE
8
front_outsideCutPath
10
58
20
119
11
46
21
119
0
LINE
8
front_outsideCutPath
10
46
20
119
11
46
21
116
0
LINE
8
front_outsideCutPath
10
46
20
116
11
34
21
116
0
LINE
8
front_outsideCutPath
10
34
20
116
11
34
21
119
0
LINE
8
front_outsideCutPath
10
34
20
119
11
22
21
119
0
LINE
8
front_outsideCutPath
10
22
20
119
11
22
21
116
0
LINE
8
front_outsideCutPath
10
22
20
116
11
10
21
116
0
LINE
8
front_outsideCutPath
10
10
20
116
11
10
21
119
0
LINE
8
front_outsideCutPath
10
10
20
119
11
0
21
119
0
LINE
8
left_outsideCutPath
10
86
20
119
11
86
21
103
0
LINE
8
left_outsideCutPath
10
86
20
103
11
83
21
103
0
LINE
8
left_outsideCutPath
10
83
20
103
11
83
21
91
0
LINE
8
left_outsideCutPath
10
83
20
91
11
86
21
91
0
LINE
8
left_outsideCutPath
10
86
20
91
11
86
21
79
0
LINE
8
left_outsideCutPath
10
86
20
79
11
83
21
79
0
LINE
8
left_outsideCutPath
10
83
20
79
11
83
21
67
0
LINE
8
left_outsideCutPath
10
83
20
67
11
86
21
67
0
LINE
8
left_outsideCutPath
10
86
20
67
11
86
21
55
0
LINE
8
left_outsideCutPath
10
86
20
55
11
83
21
55
0
LINE
8
left_outsideCutPath
10
83
20
55
11
83
21
43
0
LINE
8
left_outsideCutPath
10
83
20
43
11
86
21
43
0
LINE
8
left_outsideCutPath
10
86
20
43
11
86
21
31
0
LINE
8
left_outsideCutPath
10
86
20
31
11
83
21
31
0
LINE
8
left_outsideCutPath
10
83
20
31
11
83
21
19
0
LINE
8
left_outsideCutPath
10
83
20
19
11
86
21
19
0
LINE
8
left_outsideCutPath
10
86
20
19
11
86
21
7
0
LINE
8
left_outsideCutPath
10
86
20
7
11
86
21
3
0
LINE
8
left_outsideCutPath
10
86
20
3
11
101.5
21
3
0
LINE
8
left_outsideCutPath
10
101.5
20
3
11
101.5
21
6
0
LINE
8
left_outsideCutPath
10
101.5
20
6
11
113.5
21
6
0
LINE
8
left_outsideCutPath
10
113.5
20
6
11
113.5
21
3
0
LINE
8
left_outsideCutPath
10
113.5
20
3
11
125.5
21
3
0
LINE
8
left_outsideCutPath
10
125.5
20
3
11
125.5
21
6
0
LINE
8
left_outsideCutPath
10
125.5
20
6
11
137.5
21
6
0
LINE
8
left_outsideCutPath
10
137.5
20
6
11
137.5
21
3
0
LINE
8
left_outsideCutPath
10
137.5
20
3
11
149.5
21
3
0
LINE
8
left_outsideCutPath
10
149.5
20
3
11
149.5
21
6
0
LINE
8
left_outsideCutPath
10
149.5
20
6
11
161.5
21
6
0
LINE
8
left_outsideCutPath
10
161.5
20
6
11
161.5
21
3
0
LINE
8
left_outsideCutPath
10
161.5
20
3
11
173.5
21
3
0
LINE
8
left_outsideCutPath
10
173.5
20
3
11
173.5
21
6
0
LINE
8
left_outsideCutPath
10
173.5
20
6
11
185.5
21
6
0
LINE
8
left_outsideCutPath
10
185.5
20
6
11
185.5
21
3
0
LINE
8
left_outsideCutPath
10
185.5
20
3
11
197.5
21
3
0
LINE
8
left_outsideCutPath
10
197.5
20
3
11
201
21
3
0
LINE
8
left_outsideCutPath
10
201
20
3
11
201
21
19
0
LINE
8
left_outsideCutPath
10
201
20
19
11
204
21
19
0
LINE
8
left_outsideCutPath
10
204
20
19
11
204
21
31
0
LINE
8
left_outsideCutPath
10
204
20
31
11
201
21
31
0
LINE
8
left_outsideCutPath
10
201
20
31
11
201
21
43
0
LINE
8
left_outsideCutPath
10
201
20
43
11
204
21
43
0
LINE
8
left_outsideCutPath
10
204
20
43
11
204
21
55
0
LINE
8
left_outsideCutPath
10
204
20
55
11
201
21
55
0
LINE
8
left_outsideCutPath
10
201
20
55
11
201
21
67
0
LINE
8
left_outsideCutPath
10
201
20
67
11
204
21
67
0
LINE
8
left_outsideCutPath
10
204
20
67
11
204
21
79
0
LINE
8
left_outsideCutPath
10
204
20
79
11
201
21
79
0
LINE
8
left_outsideCutPath
10
201
20
79
11
201
21
91
0
LINE
8
left_outsideCutPath
10
201
20
91
11
204
21
91
0
LINE
8
left_outsideCutPath
10
204
20
91
11
204
21
103
0
LINE
8
left_outsideCutPath
10
204
20
103
11
201
21
103
0
LINE
8
left_outsideCutPath
10
201
20
103
11
201
21
115
0
LINE
8
left_outsideCutPath
10
201
20
115
11
201
21
119
0
LINE
8
left_outsideCutPath
10
201
20
119
11
185.5
21
119
0
LINE
8
left_outsideCutPath
10
185.5
20
119
11
185.5
21
116
0
LINE
8
left_outsideCutPath
10
185.5
20
116
11
173.5
21
116
0
LINE
8
left_outsideCutPath
10
173.5
20
116
11
173.5
21
119
0
LINE
8
left_outsideCutPath
10
173.5
20
119
11
161.5
21
119
0
LINE
8
left_outsideCutPath
10
161.5
20
119
11
161.5
21
116
0
LINE
8
left_outsideCutPath
10
161.5
20
116
11
149.5
21
116
0
LINE
8
left_outsideCutPath
10
149.5
20
116
11
149.5
21
119
0
LINE
8
left_outsideCutPath
10
149.5
20
119
11
137.5
21
119
0
LINE
8
left_outsideCutPath
10
137.5
20
119
11
137.5
21
116
0
LINE
8
left_outsideCutPath
10
137.5
20
116
11
125.5
21
116
0
LINE
8
left_outsideCutPath
10
125.5
20
116
11
125.5
21
119
0
LINE
8
left_outsideCutPath
10
125.5
20
119
11
113.5
21
119
0
LINE
8
left_outsideCutPath
10
113.5
20
119
11
113.5
21
116
0
LINE
8
left_outsideCutPath
10
113.5
20
116
11
101.5
21
116
0
LINE
8
left_outsideCutPath
10
101.5
20
116
11
101.5
21
119
0
LINE
8
left_outsideCutPath
10
101.5
20
119
11
89.5
21
119
0
LINE
8
left_outsideCutPath
10
89.5
20
119
11
86
21
119
0
LINE
8
top_outsideCutPath
10
210
20
121
11
210
21
105.5
0
LINE
8
top_outsideCutPath
10
210
20
105.5
11
207
21
105.5
0
LINE
8
top_outsideCutPath
10
207
20
105.5
11
207
21
93.5
0
LINE
8
top_outsideCutPath
10
207
20
93.5
11
210
21
93.5
0
LINE
8
top_outsideCutPath
10
210
20
93.5
11
210
21
81.5
0
LINE
8
top_outsideCutPath
10
210
20
81.5
11
207
21
81.5
0
LINE
8
top_outsideCutPath
10
207
20
81.5
11
207
21
69.5
0
LINE
8
top_outsideCutPath
10
207
20
69.5
11
210
21
69.5
0
LINE
8
top_outsideCutPath
10
210
20
69.5
11
210
21
57.5
0
LINE
8
top_outsideCutPath
10
210
20
57.5
11
207
21
57.5
0
LINE
8
top_outsideCutPath
10
207
20
57.5
11
207
21
45.5
0
LINE
8
top_outsideCutPath
10
207
20
45.5
11
210
21
45.5
0
LINE
8
top_outsideCutPath
10
210
20
45.5
11
210
21
33.5
0
LINE
8
top_outsideCutPath
10
210
20
33.5
11
207
21
33.5
0
LINE
8
top_outsideCutPath
10
207
20
33.5
11
207
21
21.5
0
LINE
8
top_outsideCutPath
10
207
20
21.5
11
210
21
21.5
0
LINE
8
top_outsideCutPath
10
210
20
21.5
11
210
21
9.5
0
LINE
8
top_outsideCutPath
10
210
20
9.5
11
210
21
6
0
LINE
8
top_outsideCutPath
10
210
20
6
11
217
21
6
0
LINE
8
top_outsideCutPath
10
217
20
6
11
217
21
3
0
LINE
8
top_outsideCutPath
10
217
20
3
11
229
21
3
0
LINE
8
top_outsideCutPath
10
229
20
3
11
229
21
6
0
LINE
8
top_outsideCutPath
10
229
20
6
11
241
21
6
0
LINE
8
top_outsideCutPath
10
241
20
6
11
241
21
3
0
LINE
8
top_outsideCutPath
10
241
20
3
11
253
21
3
0
LINE
8
top_outsideCutPath
10
253
20
3
11
253
21
6
0
LINE
8
top_outsideCutPath
10
253
20
6
11
265
21
6
0
LINE
8
top_outsideCutPath
10
265
20
6
11
265
21
3
0
LINE
8
top_outsideCutPath
10
265
20
3
11
277
21
3
0
LINE
8
top_outsideCutPath
10
277
20
3
11
277
21
6
0
LINE
8
top_outsideCutPath
10
277
20
6
11
284
21
6
0
LINE
8
top_outsideCutPath
10
284
20
6
11
284
21
21.5
0
LINE
8
top_outsideCutPath
10
284
20
21.5
11
287
21
21.5
0
LINE
8
top_outsideCutPath
10
287
20
21.5
11
287
21
33.5
0
LINE
8
top_outsideCutPath
10
287
20
33.5
11
284
21
33.5
0
LINE
8
top_outsideCutPath
10
284
20
33.5
11
284
21
45.5
0
LINE
8
top_outsideCutPath
10
284
20
45.5
11
287
21
45.5
0
LINE
8
top_outsideCutPath
10
287
20
45.5
11
287
21
57.5
0
LINE
8
top_outsideCutPath
10
287
20
57.5
11
284
21
57.5
0
LINE
8
top_outsideCutPath
10
284
20
57.5
11
284
21
69.5
0
LINE
8
top_outsideCutPath
10
284
20
69.5
11
287
21
69.5
0
LINE
8
top_outsideCutPath
10
287
20
69.5
11
287
21
81.5
0
LINE
8
top_outsideCutPath
10
287
20
81.5
11
284
21
81.5
0
LINE
8
top_outsideCutPath
10
284
20
81.5
11
284
21
93.5
0
LINE
8
top_outsideCutPath
10
284
20
93.5
11
287
21
93.5
0
LINE
8
top_outsideCutPath
10
287
20
93.5
11
287
21
105.5
0
LINE
8
top_outsideCutPath
10
287
20
105.5
11
284
21
105.5
0
LINE
8
top_outsideCutPath
10
284
20
105.5
11
284
21
117.5
0
LINE
8
top_outsideCutPath
10
284
20
117.5
11
284
21
121
0
LINE
8
top_outsideCutPath
10
284
20
121
11
277
21
121
0
LINE
8
top_outsideCutPath
10
277
20
121
11
277
21
124
0
LINE
8
top_outsideCutPath
10
277
20
124
11
265
21
124
0
LINE
8
top_outsideCutPath
10
265
20
124
11
265
21
121
0
LINE
8
top_outsideCutPath
10
265
20
121
11
253
21
121
0
LINE
8
top_outsideCutPath
10
253
20
121
11
253
21
124
0
LINE
8
top_outsideCutPath
10
253
20
124
11
241
21
124
0
LINE
8
top_outsideCutPath
10
241
20
124
11
241
21
121
0
LINE
8
top_outsideCutPath
10
241
20
121
11
229
21
121
0
LINE
8
top_outsideCutPath
10
229
20
121
11
229
21
124
0
LINE
8
top_outsideCutPath
10
229
20
124
11
217
21
124
0
LINE
8
top_outsideCutPath
10
217
20
124
11
217
21
121
0
LINE
8
top_outsideCutPath
10
217
20
121
11
210
21
121
0
LINE
8
back_outsideCutPath
10
0
20
238
11
0
21
222
0
LINE
8
back_outsideCutPath
10
0
20
222
11
3
21
222
0
LINE
8
back_outsideCutPath
10
3
20
222
11
3
21
210
0
LINE
8
back_outsideCutPath
10
3
20
210
11
0
21
210
0
LINE
8
back_outsideCutPath
10
0
20
210
11
0
21
198
0
LINE
8
back_outsideCutPath
10
0
20
198
11
3
21
198
0
LINE
8
back_outsideCutPath
10
3
20
198
11
3
21
186
0
LINE
8
back_outsideCutPath
10
3
20
186
11
0
21
186
0
LINE
8
back_outsideCutPath
10
0
20
186
11
0
21
174
0
LINE
8
back_outsideCutPath
10
0
20
174
11
3
21
174
0
LINE
8
back_outsideCutPath
10
3
20
174
11
3
21
162
0
LINE
8
back_outsideCutPath
10
3
20
162
11
0
21
162
0
LINE
8
back_outsideCutPath
10
0
20
162
11
0
21
150
0
LINE
8
back_outsideCutPath
10
0
20
150
11
3
21
150
0
LINE
8
back_outsideCutPath
10
3
20
150
11
3
21
138
0
LINE
8
back_outsideCutPath
10
3
20
138
11
0
21
138
0
LINE
8
back_outsideCutPath
10
0
20
138
11
0
21
126
0
LINE
8
back_outsideCutPath
10
0
20
126
11
0
21
122
0
LINE
8
back_outsideCutPath
10
0
20
122
11
10
21
122
0
LINE
8
back_outsideCutPath
10
10
20
122
11
10
21
125
0
LINE
8
back_outsideCutPath
10
10
20
125
11
22
21
125
0
LINE
8
back_outsideCutPath
10
22
20
125
11
22
21
122
0
LINE
8
back_outsideCutPath
10
22
20
122
11
34
21
122
0
LINE
8
back_outsideCutPath
10
34
20
122
11
34
21
125
0
LINE
8
back_outsideCutPath
10
34
20
125
11
46
21
125
0
LINE
8
back_outsideCutPath
10
46
20
125
11
46
21
122
0
LINE
8
back_outsideCutPath
10
46
20
122
11
58
21
122
0
LINE
8
back_outsideCutPath
10
58
20
122
11
58
21
125
0
LINE
8
back_outsideCutPath
10
58
20
125
11
70
21
125
0
LINE
8
back_outsideCutPath
10
70
20
125
11
70
21
122
0
LINE
8
back_outsideCutPath
10
70
20
122
11
80
21
122
0
LINE
8
back_outsideCutPath
10
80
20
122
11
80
21
138
0
LINE
8
back_outsideCutPath
10
80
20
138
11
77
21
138
0
LINE
8
back_outsideCutPath
10
77
20
138
11
77
21
150
0
LINE
8
back_outsideCutPath
10
77
20
150
11
80
21
150
0
LINE
8
back_outsideCutPath
10
80
20
150
11
80
21
162
0
LINE
8
back_outsideCutPath
10
80
20
162
11
77
21
162
0
LINE
8
back_outsideCutPath
10
77
20
162
11
77
21
174
0
LINE
8
back_outsideCutPath
10
77
20
174
11
80
21
174
0
LINE
8
back_outsideCutPath
10
80
20
174
11
80
21
186
0
LINE
8
back_outsideCutPath
10
80
20
186
11
77
21
186
0
LINE
8
back_outsideCutPath
10
77
20
186
11
77
21
198
0
LINE
8
back_outsideCutPath
10
77
20
198
11
80
21
198
0
LINE
8
back_outsideCutPath
10
80
20
198
11
80
21
210
0
LINE
8
back_outsideCutPath
10
80
20
210
11
77
21
210
0
LINE
8
back_outsideCutPath
10
77
20
210
11
77
21
222
0
LINE
8
back_outsideCutPath
10
77
20
222
11
80
21
222
0
LINE
8
back_outsideCutPath
10
80
20
222
11
80
21
234
0
LINE
8
back_outsideCutPath
10
80
20
234
11
80
21
238
0
LINE
8
back_outsideCutPath
10
80
20
238
11
70
21
238
0
LINE
8
back_outsideCutPath
10
70
20
238
11
70
21
235
0
LINE
8
back_outsideCutPath
10
70
20
235
11
58
21
235
0
LINE
8
back_outsideCutPath
10
58
20
235
11
58
21
238
0
LINE
8
back_outsideCutPath
10
58
20
238
11
46
21
238
0
LINE
8
back_outsideCutPath
10
46
20
238
11
46
21
235
0
LINE
8
back_outsideCutPath
10
46
20
235
11
34
21
235
0
LINE
8
back_outsideCutPath
10
34
20
235
11
34
21
238
0
LINE
8
back_outsideCutPath
10
34
20
238
11
22
21
238
0
LINE
8
back_outsideCutPath
10
22
20
238
11
22
21
235
0
LINE
8
back_outsideCutPath
10
22
20
235
11
10
21
235
0
LINE
8
back_outsideCutPath
10
10
20
235
11
10
21
238
0
LINE
8
back_outsideCutPath
10
10
20
238
11
0
21
238
0
LINE
8
right_outsideCutPath
10
86
20
238
11
86
21
222
0
LINE
8
right_outsideCutPath
10
86
20
222
11
83
21
222
0
LINE
8
right_outsideCutPath
10
83
20
222
11
83
21
210
0
LINE
8
right_outsideCutPath
10
83
20
210
11
86
21
210
0
LINE
8
right_outsideCutPath
10
86
20
210
11
86
21
198
0
LINE
8
right_outsideCutPath
10
86
20
198
11
83
21
198
0
LINE
8
right_outsideCutPath
10
83
20
198
11
83
21
186
0
LINE
8
right_outsideCutPath
10
83
20
186
11
86
21
186
0
LINE
8
right_outsideCutPath
10
86
20
186
11
86
21
174
0
LINE
8
right_outsideCutPath
10
86
20
174
11
83
21
174
0
LINE
8
right_outsideCutPath
10
83
20
174
11
83
21
162
0
LINE
8
right_outsideCutPath
10
83
20
162
11
86
21
162
0
LINE
8
right_outsideCutPath
10
86
20
162
11
86
21
150
0
LINE
8
right_outsideCutPath
10
86
20
150
11
83
21
150
0
LINE
8
right_outsideCutPath
10
83
20
150
11
83
21
138
0
LINE
8
right_outsideCutPath
10
83
20
138
11
86
21
138
0
LINE
8
right_outsideCutPath
10
86
20
138
11
86
21
126
0
LINE
8
right_outsideCutPath
10
86
20
126
11
86
21
122
0
LINE
8
right_outsideCutPath
10
86
20
122
11
101.5
21
122
0
LINE
8
right_outsideCutPath
10
101.5
20
122
11
101.5
21
125
0
LINE
8
right_outsideCutPath
10
101.5
20
125
11
113.5
21
125
0
LINE
8
right_outsideCutPath
10
113.5
20
125
11
113.5
21
122
0
LINE
8
right_outsideCutPath
10
113.5
20
122
11
125.5
21
122
0
LINE
8
right_outsideCutPath
10
125.5
20
122
11
125.5
21
125
0
LINE
8
right_outsideCutPath
10
125.5
20
125
11
137.5
21
125
0
LINE
8
right_outsideCutPath
10
137.5
20
125
11
137.5
21
122
0
LINE
8
right_outsideCutPath
10
137.5
20
122
11
149.5
21
122
0
LINE
8
right_outsideCutPath
10
149.5
20
122
11
149.5
21
125
0
LINE
8
right_outsideCutPath
10
149.5
20
125
11
161.5
21
125
0
LINE
8
right_outsideCutPath
10
161.5
20
125
11
161.5
21
122
0
LINE
8
right_outsideCutPath
10
161.5
20
122
11
173.5
21
122
0
LINE
8
right_outsideCutPath
10
173.5
20
122
11
173.5
21
125
0
LINE
8
right_outsideCutPath
10
173.5
20
125
11
185.5
21
125
0
LINE
8
right_outsideCutPath
10
185.5
20
125
11
185.5
21
122
0
LINE
8
right_outsideCutPath
10
185.5
20
122
11
197.5
21
122
0
LINE
8
right_outsideCutPath
10
197.5
20
122
11
201
21
122
0
LINE
8
right_outsideCutPath
10
201
20
122
11
201
21
138
0
LINE
8
right_outsideCutPath
10
201
20
138
11
204
21
138
0
LINE
8
right_outsideCutPath
10
204
20
138
11
204
21
150
0
LINE
8
right_outsideCutPath
10
204
20
150
11
201
21
150
0
LINE
8
right_outsideCutPath
10
201
20
150
11
201
21
162
0
LINE
8
right_outsideCutPath
10
201
20
162
11
204
21
162
0
LINE
8
right_outsideCutPath
10
204
20
162
11
204
21
174
0
LINE
8
right_outsideCutPath
10
204
20
174
11
201
21
174
0
LINE
8
right_outsideCutPath
10
201
20
174
11
201
21
186
0
LINE
8
right_outsideCutPath
10
201
20
186
11
204
21
186
0
LINE
8
right_outsideCutPath
10
204
20
186
11
204
21
198
0
LINE
8
right_outsideCutPath
10
204
20
198
11
201
21
198
0
LINE
8
right_outsideCutPath
10
201
20
198
11
201
21
210
0
LINE
8
right_outsideCutPath
10
201
20
210
11
204
21
210
0
LINE
8
right_outsideCutPath
10
204
20
210
11
204
21
222
0
LINE
8
right_outsideCutPath
10
204
20
222
11
201
21
222
0
LINE
8
right_outsideCutPath
10
201
20
222
11
201
21
234
0
LINE
8
right_outsideCutPath
10
201
20
234
11
201
21
238
0
LINE
8
right_outsideCutPath
10
201
20
238
11
185.5
21
238
0
LINE
8
right_outsideCutPath
10
185.5
20
238
11
185.5
21
235
0
LINE
8
right_outsideCutPath
10
185.5
20
235
11
173.5
21
235
0
LINE
8
right_outsideCutPath
10
173.5
20
235
11
173.5
21
238
0
LINE
8
right_outsideCutPath
10
173.5
20
238
11
161.5
21
238
0
LINE
8
right_outsideCutPath
10
161.5
20
238
11
161.5
21
235
0
LINE
8
right_outsideCutPath
10
161.5
20
235
11
149.5
21
235
0
LINE
8
right_outsideCutPath
10
149.5
20
235
11
149.5
21
238
0
LINE
8
right_outsideCutPath
10
149.5
20
238
11
137.5
21
238
0
LINE
8
right_outsideCutPath
10
137.5
20
238
11
137.5
21
235
0
LINE
8
right_outsideCutPath
10
137.5
20
235
11
125.5
21
235
0
LINE
8
right_outsideCutPath
10
125.5
20
235
11
125.5
21
238
0
LINE
8
right_outsideCutPath
10
125.5
20
238
11
113.5
21
238
0
LINE
8
right_outsideCutPath
10
113.5
20
238
11
113.5
21
235
0
LINE
8
right_outsideCutPath
10
113.5
20
235
11
101.5
21
235
0
LINE
8
right_outsideCutPath
10
101.5
20
235
11
101.5
21
238
0
LINE
8
right_outsideCutPath
10
101.5
20
238
11
89.5
21
238
0
LINE
8
right_outsideCutPath
10
89.5
20
238
11
86
21
238
0
LINE
8
bottom_outsideCutPath
10
210
20
245
11
210
21
229.5
0
LINE
8
bottom_outsideCutPath
10
210
20
229.5
11
207
21
229.5
0
LINE
8
bottom_outsideCutPath
10
207
20
229.5
11
207
21
217.5
0
LINE
8
bottom_outsideCutPath
10
207
20
217.5
11
210
21
217.5
0
LINE
8
bottom_outsideCutPath
10
210
20
217.5
11
210
21
205.5
0
LINE
8
bottom_outsideCutPath
10
210
20
205.5
11
207
21
205.5
0
LINE
8
bottom_outsideCutPath
10
207
20
205.5
11
207
21
193.5
0
LINE
8
bottom_outsideCutPath
10
207
20
193.5
11
210
21
193.5
0
LINE
8
bottom_outsideCutPath
10
210
20
193.5
11
210
21
181.5
0
LINE
8
bottom_outsideCutPath
10
210
20
181.5
11
207
21
181.5
0
LINE
8
bottom_outsideCutPath
10
207
20
181.5
11
207
21
169.5
0
LINE
8
bottom_outsideCutPath
10
207
20
169.5
11
210
21
169.5
0
LINE
8
bottom_outsideCutPath
10
210
20
169.5
11
210
21
157.5
0
LINE
8
bottom_outsideCutPath
10
210
20
157.5
11
207
21
157.5
0
LINE
8
bottom_outsideCutPath
10
207
20
157.5
11
207
21
145.5
0
LINE
8
bottom_outsideCutPath
10
207
20
145.5
11
210
21
145.5
0
LINE
8
bottom_outsideCutPath
10
210
20
145.5
11
210
21
133.5
0
LINE
8
bottom_outsideCutPath
10
210
20
133.5
11
210
21
130
0
LINE
8
bottom_outsideCutPath
10
210
20
130
11
217
21
130
0
LINE
8
bottom_outsideCutPath
10
217
20
130
11
217
21
127
0
LINE
8
bottom_outsideCutPath
10
217
20
127
11
229
21
127
0
LINE
8
bottom_outsideCutPath
10
229
20
127
11
229
21
130
0
LINE
8
bottom_outsideCutPath
10
229
20
130
11
241
21
130
0
LINE
8
bottom_outsideCutPath
10
241
20
130
11
241
21
127
0
LINE
8
bottom_outsideCutPath
10
241
20
127
11
253
21
127
0
LINE
8
bottom_outsideCutPath
10
253
20
127
11
253
21
130
0
LINE
8
bottom_outsideCutPath
10
253
20
130
11
265
21
130
0
LINE
8
bottom_outsideCutPath
10
265
20
130
11
265
21
127
0
LINE
8
bottom_outsideCutPath
10
265
20
127
11
277
21
127
0
LINE
8
bottom_outsideCutPath
10
277
20
127
11
277
21
130
0
LINE
8
bottom_outsideCutPath
10
277
20
130
11
284
21
130
0
LINE
8
bottom_outsideCutPath
10
284
20
130
11
284
21
145.5
0
LINE
8
bottom_outsideCutPath
10
284
20
145.5
11
287
21
145.5
0
LINE
8
bottom_outsideCutPath
10
287
20
145.5
11
287
21
157.5
0
LINE
8
bottom_outsideCutPath
10
287
20
157.5
11
284
21
157.5
0
LINE
8
bottom_outsideCutPath
10
284
20
157.5
11
284
21
169.5
0
LINE
8
bottom_outsideCutPath
10
284
20
169.5
11
287
21
169.5
0
LINE
8
bottom_outsideCutPath
10
287
20
169.5
11
287
21
181.5
0
LINE
8
bottom_outsideCutPath
10
287
20
181.5
11
284
21
181.5
0
LINE
8
bottom_outsideCutPath
10
284
20
181.5
11
284
21
193.5
0
LINE
8
bottom_outsideCutPath
10
284
20
193.5
11
287
21
193.5
0
LINE
8
bottom_outsideCutPath
10
287
20
193.5
11
287
21
205.5
0
LINE
8
bottom_outsideCutPath
10
287
20
205.5
11
284
21
205.5
0
LINE
8
bottom_outsideCutPath
10
284
20
205.5
11
284
21
217.5
0
LINE
8
bottom_outsideCutPath
10
284
20
217.5
11
287
21
217.5
0
LINE
8
bottom_outsideCutPath
10
287
20
217.5
11
287
21
229.5
0
LINE
8
bottom_outsideCutPath
10
287
20
229.5
11
284
21
229.5
0
LINE
8
bottom_outsideCutPath
10
284
20
229.5
11
284
21
241.5
0
LINE
8
bottom_outsideCutPath
10
284
20
241.5
11
284
21
245
0
LINE
8
bottom_outsideCutPath
10
284
20
245
11
277
21
245
0
LINE
8
bottom_outsideCutPath
10
277
20
245
11
277
21
248
0
LINE
8
bottom_outsideCutPath
10
277
20
248
11
265
21
248
0
LINE
8
bottom_outsideCutPath
10
265
20
248
11
265
21
245
0
LINE
8
bottom_outsideCutPath
10
265
20
245
11
253
21
245
0
LINE
8
bottom_outsideCutPath
10
253
20
245
11
253
21
248
0
LINE
8
bottom_outsideCutPath
10
253
20
248
11
241
21
248
0
LINE
8
bottom_outsideCutPath
10
241
20
248
11
241
21
245
0
LINE
8
bottom_outsideCutPath
10
241
20
245
11
229
21
245
0
LINE
8
bottom_outsideCutPath
10
229
20
245
11
229
21
248
0
LINE
8
bottom_outsideCutPath
10
229
20
248
11
217
21
248
0
LINE
8
bottom_outsideCutPath
10
217
20
248
11
217
21
245
0
LINE
8
bottom_outsideCutPath
10
217
20
245
11
210
21
245
0
ENDSEC
0
EOF